<svg width="394" height="50" viewBox="0 0 394 50" fill="none" xmlns="http://www.w3.org/2000/svg">
<path fill-rule="evenodd" clip-rule="evenodd" d="M127.389 15.744V48.448H139.037V15.744H127.389ZM128.477 1.984C127.197 3.264 126.557 4.82133 126.557 6.656C126.557 8.448 127.197 10.0053 128.477 11.328C129.8 12.608 131.357 13.248 133.149 13.248C134.984 13.248 136.562 12.608 137.885 11.328C139.208 10.0053 139.869 8.448 139.869 6.656C139.869 4.82133 139.208 3.264 137.885 1.984C136.562 0.661334 134.984 0 133.149 0C131.357 0 129.8 0.661334 128.477 1.984ZM182.477 27.7119C182.477 33.5999 184.567 38.6346 188.749 42.8159C192.93 46.9973 197.922 49.0879 203.725 49.0879C210.082 49.0879 215.394 46.6773 219.661 41.8559L218.765 41.0239C216.93 43.1573 214.69 44.8213 212.045 46.0159C209.442 47.2106 206.669 47.8079 203.725 47.8079C198.263 47.8079 193.57 45.8453 189.645 41.9199C185.762 37.9946 183.821 33.2586 183.821 27.7119C183.821 22.1653 185.762 17.4293 189.645 13.5039C193.527 9.57861 198.221 7.61594 203.725 7.61594C209.058 7.61594 213.687 9.51461 217.613 13.3119L218.509 12.4159C214.37 8.3626 209.442 6.33594 203.725 6.33594C197.879 6.33594 192.866 8.42661 188.685 12.6079C184.546 16.7893 182.477 21.8239 182.477 27.7119ZM226.257 48.4479V6.33594H227.473V48.4479H226.257ZM264.711 33.856V33.28C264.711 28.928 263.303 25.216 260.487 22.144C257.671 19.0294 254.279 17.472 250.311 17.472C246.301 17.472 242.866 19.0294 240.007 22.144C237.149 25.216 235.719 28.928 235.719 33.28C235.719 37.632 237.255 41.3654 240.327 44.48C243.399 47.552 247.09 49.088 251.399 49.088C255.623 49.088 259.186 47.5734 262.087 44.544L261.191 43.648C258.589 46.4641 255.325 47.872 251.399 47.872C247.517 47.872 244.167 46.5067 241.351 43.776C238.578 41.0454 237.127 37.7387 236.999 33.856H264.711ZM241.031 22.784C243.591 20.0534 246.685 18.688 250.311 18.688C253.853 18.688 256.882 20.0534 259.399 22.784C261.959 25.5147 263.303 28.8214 263.431 32.704H236.999C237.127 28.7787 238.471 25.472 241.031 22.784ZM276.592 22.976C273.947 25.8347 272.624 29.2694 272.624 33.28C272.624 37.2907 273.947 40.7254 276.592 43.584C279.238 46.4427 282.416 47.872 286.128 47.872C289.883 47.872 293.083 46.4427 295.728 43.584C298.416 40.7254 299.76 37.2907 299.76 33.28C299.76 29.2694 298.416 25.8347 295.728 22.976C293.083 20.1174 289.883 18.688 286.128 18.688C282.416 18.688 279.238 20.1174 276.592 22.976ZM299.76 48.448V38.912C298.822 41.856 297.072 44.288 294.512 46.208C291.995 48.128 289.2 49.088 286.128 49.088C282.075 49.088 278.598 47.552 275.696 44.48C272.795 41.3654 271.344 37.632 271.344 33.28C271.344 28.928 272.774 25.216 275.632 22.144C278.534 19.0294 282.032 17.472 286.128 17.472C289.2 17.472 291.995 18.432 294.512 20.352C297.072 22.272 298.822 24.704 299.76 27.648V18.112H300.976V48.448H299.76ZM310.82 18.112V48.448H312.036V29.312C312.036 26.5814 313.124 24.128 315.3 21.952C317.518 19.776 320.334 18.688 323.748 18.688C330.318 18.688 333.604 22.016 333.604 28.672V48.448H334.82V28.48C334.82 24.7254 333.817 21.952 331.812 20.16C329.849 18.368 327.161 17.472 323.748 17.472C318.073 17.472 314.169 19.8827 312.036 24.704V18.112H310.82ZM371.399 33.28V33.856H343.687C343.815 37.7387 345.266 41.0454 348.039 43.776C350.855 46.5067 354.204 47.872 358.087 47.872C362.012 47.872 365.276 46.4641 367.879 43.648L368.775 44.544C365.874 47.5734 362.311 49.088 358.087 49.088C353.778 49.088 350.087 47.552 347.015 44.48C343.943 41.3654 342.407 37.632 342.407 33.28C342.407 28.928 343.836 25.216 346.695 22.144C349.554 19.0294 352.988 17.472 356.999 17.472C360.967 17.472 364.359 19.0294 367.175 22.144C369.991 25.216 371.399 28.928 371.399 33.28ZM356.999 18.688C353.372 18.688 350.279 20.0534 347.719 22.784C345.159 25.472 343.815 28.7787 343.687 32.704H370.119C369.991 28.8214 368.647 25.5147 366.087 22.784C363.57 20.0534 360.54 18.688 356.999 18.688ZM393.776 17.472V18.688C389.979 18.688 386.864 19.8614 384.432 22.208C382.043 24.512 380.848 27.3067 380.848 30.592V48.448H379.632V18.112H380.848V25.344C383.365 20.096 387.675 17.472 393.776 17.472ZM173.579 46.016C170.251 48.064 166.347 49.088 161.867 49.088C156.704 49.088 152.352 47.5733 148.811 44.544C145.269 41.472 143.499 37.3333 143.499 32.128C143.499 27.3493 145.12 23.3173 148.363 20.032C151.648 16.7467 155.701 15.104 160.523 15.104C165.131 15.104 169.013 16.768 172.171 20.096C175.328 23.3813 176.907 27.392 176.907 32.128L176.651 35.904H154.955C155.851 38.72 158.176 40.128 161.931 40.128C164.747 40.128 167.328 39.4667 169.675 38.144L173.579 46.016ZM160.523 24.256C159.072 24.256 157.813 24.7253 156.747 25.664C155.68 26.6027 154.976 27.8187 154.635 29.312H166.283C166.112 27.8187 165.472 26.6027 164.363 25.664C163.296 24.7253 162.016 24.256 160.523 24.256ZM104.827 37.888V24.96H100.027V15.7439H104.827V9.85595L116.475 6.97595V15.7439H123.707V24.96H116.475V36.992C116.475 38.3573 117.072 39.04 118.267 39.04C119.248 39.04 120.23 38.6986 121.211 38.016L124.347 46.528C121.915 48.2346 118.864 49.088 115.195 49.088C111.995 49.088 109.456 48.1066 107.579 46.144C105.744 44.1813 104.827 41.4293 104.827 37.888ZM79.5769 24.96V37.888C79.5769 41.4293 80.4942 44.1813 82.3289 46.144C84.2062 48.1066 86.7449 49.088 89.9449 49.088C93.6142 49.088 96.6649 48.2346 99.0969 46.528L95.9609 38.016C94.9795 38.6986 93.9982 39.04 93.0169 39.04C91.8222 39.04 91.2249 38.3573 91.2249 36.992V24.96H98.4569V15.7439H91.2249V6.97595L79.5769 9.85595V15.7439H74.7769V24.96H79.5769ZM37.0613 32.128C37.0613 27.3493 38.7466 23.3173 42.1173 20.032C45.5306 16.7467 49.7333 15.104 54.7253 15.104C59.7173 15.104 63.8986 16.7467 67.2693 20.032C70.6826 23.3173 72.3893 27.3493 72.3893 32.128C72.3893 36.864 70.6826 40.8747 67.2693 44.16C63.8986 47.4453 59.7173 49.088 54.7253 49.088C49.7333 49.088 45.5306 47.4453 42.1173 44.16C38.7466 40.8747 37.0613 36.864 37.0613 32.128ZM50.5013 27.264C49.3919 28.544 48.8373 30.1653 48.8373 32.128C48.8373 34.0907 49.3706 35.712 50.4373 36.992C51.5466 38.2293 52.9759 38.848 54.7253 38.848C56.4746 38.848 57.8826 38.2293 58.9493 36.992C60.0586 35.712 60.6133 34.0907 60.6133 32.128C60.6133 30.1653 60.0586 28.544 58.9493 27.264C57.8399 25.984 56.4319 25.344 54.7253 25.344C53.0186 25.344 51.6106 25.984 50.5013 27.264ZM0.223877 6.97595V48.448H34.4639V38.144H12.3839V6.97595H0.223877Z" fill="#20272C"/>
</svg>
